<svg xmlns="http://www.w3.org/2000/svg" viewBox="0 0 500 650"><defs><linearGradient id="g" x1="0" x2="1"><stop stop-color="#263f2e"/><stop offset="1" stop-color="#54725a"/></linearGradient></defs><rect width="500" height="650" fill="none"/><circle cx="250" cy="220" r="105" fill="#d9b18d"/><path d="M150 190c10-95 190-105 205 5-55-30-125-45-205-5z" fill="#392f28"/><path d="M155 300c-80 80-95 230-80 350h350c15-120-2-260-80-350-55 55-140 60-190 0z" fill="url(#g)"/><path d="M205 280c20 38 70 50 95 0l35 60-70 70-75-70z" fill="#f1e6ce"/><path d="M195 230c18 12 35 15 52 10M305 240c-18 12-35 15-52 10" stroke="#593f31" stroke-width="8" stroke-linecap="round" fill="none"/><circle cx="205" cy="220" r="7" fill="#253d2d"/><circle cx="300" cy="220" r="7" fill="#253d2d"/></svg>